<svg width="58" height="59" viewBox="0 0 58 59" fill="none" xmlns="http://www.w3.org/2000/svg">
<g clip-path="url(#clip0_859_51)">
<path d="M55.1386 6.22026C55.7574 6.12942 56.3437 5.88105 56.8431 5.49816C57.3426 5.11527 57.7391 4.61024 57.9959 4.02983C57.6307 4.28366 57.2445 4.50478 56.8418 4.6907C56.4034 4.89585 55.9469 5.05833 55.4784 5.17596C56.1564 4.6162 56.7245 3.93123 57.153 3.15699C57.6058 2.33739 57.8938 1.43415 58 0.5C57.5306 1.18789 57.002 1.90798 56.4091 2.64679C55.8632 3.3274 55.3213 3.95086 54.7968 4.51717C55.2556 3.77324 55.5256 2.92483 55.5825 2.04826C55.6136 1.52811 55.5675 1.00616 55.4458 0.5C55.1774 1.32193 54.8723 2.17711 54.5274 3.05723C54.3389 3.53314 54.1467 3.99485 53.9508 4.44236C53.3385 4.81955 52.3864 5.37755 51.1792 5.97607C47.828 7.62929 46.2718 7.66981 44.0421 9.08715C42.7541 9.91107 41.5896 10.9201 40.5848 12.0829C37.056 10.0416 33.0577 8.9923 28.9995 9.04247C24.9403 8.99288 20.9413 10.0433 17.4121 12.086C16.4073 10.9232 15.2429 9.91419 13.9548 9.09027C11.7282 7.66981 10.172 7.62929 6.82383 5.97607C5.61254 5.38379 4.66453 4.81955 4.05225 4.44236C3.85701 3.99554 3.66482 3.53384 3.47569 3.05723C3.12772 2.17711 2.8226 1.32193 2.55116 0.5C2.42944 1.00616 2.38334 1.52811 2.41441 2.04826C2.47085 2.92492 2.74091 3.77345 3.20017 4.51717C2.67463 3.95086 2.13379 3.3274 1.58784 2.64679C0.998012 1.90798 0.469413 1.18789 0 0.5C0.106908 1.43236 0.394819 2.33377 0.846984 3.15179C1.27499 3.92789 1.84315 4.61466 2.52156 5.17596C2.05189 5.06026 1.59404 4.89952 1.15414 4.6959C0.75122 4.50953 0.36504 4.2877 0 4.03295C0.257231 4.61277 0.653909 5.11717 1.15334 5.4995C1.65277 5.88182 2.23883 6.12972 2.85729 6.22026C3.2271 11.555 5.34017 16.6101 8.85965 20.5796C6.84934 23.7312 6.19625 26.3643 5.98195 28.2285C5.83704 29.4868 5.89623 30.368 5.56356 32.6914C5.33461 34.3466 5.00022 35.985 4.56249 37.596C4.177 39.0328 3.68894 40.439 3.1022 41.8033C2.32849 43.5878 1.38192 45.2893 0.276545 46.8825C0.686214 47.8696 1.27984 48.7666 2.0246 49.5239C4.74311 52.2567 7.32488 50.7209 9.45968 53.2054C10.2883 54.1697 12.22 57.1 12.7792 58.0237C12.9728 58.3831 13.2701 58.6733 13.631 58.855C13.9918 59.0368 14.3987 59.1013 14.7967 59.04L14.8314 45.4849C14.2793 45.3997 12.3149 45.0277 10.9169 43.2695C9.34131 41.2879 9.35866 38.6455 10.1322 36.7938C11.8302 32.7278 17.1172 32.6228 17.5336 32.6208C19.7184 32.6262 21.828 33.4334 23.4757 34.8943C25.3677 36.6016 25.9442 38.8575 26.3096 40.6884C26.8728 43.5106 26.9055 47.0923 25.9575 51.0347C26.2769 51.6255 26.7117 52.1435 27.235 52.5568C27.7583 52.9701 28.3591 53.2701 29.0005 53.4382C29.642 53.2689 30.2427 52.9679 30.7658 52.5537C31.2889 52.1395 31.7233 51.6208 32.0425 51.0295C31.0945 47.0872 31.1241 43.5054 31.6904 40.6832C32.0558 38.8523 32.6323 36.5964 34.5243 34.8891C36.1714 33.4312 38.2789 32.626 40.4613 32.6208C40.8787 32.6208 46.1657 32.7247 47.8638 36.7938C48.6373 38.6455 48.6546 41.2879 47.079 43.2695C45.681 45.0277 43.7115 45.3997 43.1645 45.4849L43.1992 59.04C43.5979 59.1022 44.0057 59.0381 44.3673 58.8563C44.7289 58.6745 45.0269 58.3838 45.2208 58.0237C45.78 57.1 47.7117 54.1697 48.5403 53.2054C50.6751 50.7209 53.2569 52.2567 55.9754 49.5239C56.7202 48.7666 57.3138 47.8696 57.7235 46.8825C56.6191 45.2891 55.6736 43.5877 54.9009 41.8033C54.3131 40.439 53.824 39.0329 53.4375 37.596C52.9998 35.985 52.6654 34.3466 52.4364 32.6914C52.1027 30.368 52.163 29.4868 52.0181 28.2285C51.8038 26.3643 51.1507 23.7312 49.1404 20.5796C52.6583 16.6095 54.77 11.5545 55.1386 6.22026Z" fill="#3B454E"/>
</g>
<defs>
<clipPath id="clip0_859_51">
<rect width="58" height="58" fill="white" transform="translate(0 0.5)"/>
</clipPath>
</defs>
</svg>
