<svg width="74" height="41" viewBox="0 0 74 41" fill="none" xmlns="http://www.w3.org/2000/svg">
<path d="M1.37068 0.882011L0.302246 3.4531H1.83475V16.3085H12.5191L13.2746 13.7374H4.39252V9.88623H8.6231L9.37856 7.31515H4.39252V3.4531H12.5191L13.2746 0.882011H1.37068Z" fill="#B2B2B2"/>
<path d="M15.433 0.882011V16.3085H25.6641L26.7326 13.7374H17.9908V0.882011H15.433Z" fill="#B2B2B2"/>
<path d="M30.8228 13.7376V3.45326H33.3806C34.7908 3.45326 35.9959 3.9559 36.996 4.96119C37.9961 5.96648 38.4961 7.17789 38.4961 8.59543C38.4961 10.013 37.9961 11.2244 36.996 12.2297C35.9959 13.235 34.7908 13.7376 33.3806 13.7376H30.8228ZM27.801 0.882171L26.7326 3.45326H28.2651V16.3087H33.3806C35.4959 16.3087 37.3054 15.5565 38.8091 14.0522C40.3056 12.5406 41.0539 10.7217 41.0539 8.59543C41.0539 6.46913 40.3056 4.65382 38.8091 3.1495C37.3054 1.63795 35.4959 0.882171 33.3806 0.882171H27.801Z" fill="#B2B2B2"/>
<path d="M43.1789 0.882171L42.1105 3.45326H43.643V16.3087H54.3274L55.0828 13.7376H46.2008V9.88639H50.4314L51.1868 7.31531H46.2008V3.45326H54.3274L55.0828 0.882171H43.1789Z" fill="#B2B2B2"/>
<path d="M60.883 3.43156H64.7251C65.5165 3.43156 66.1929 3.71362 66.7541 4.27774C67.3152 4.84186 67.5958 5.52531 67.5958 6.3281C67.5958 7.12365 67.3152 7.80349 66.7541 8.36761C66.1929 8.93173 65.5165 9.21379 64.7251 9.21379H60.883V3.43156ZM58.3253 16.287H60.883V11.7849H63.689L69.5493 19.2595L73.7906 20.5179L66.6677 11.4269C67.7038 11.0291 68.5384 10.371 69.1715 9.45245C69.8263 8.51225 70.1536 7.4708 70.1536 6.3281C70.1536 4.81655 69.6248 3.52919 68.5672 2.46605C67.5023 1.39566 66.2216 0.860474 64.7251 0.860474H57.8612L56.7928 3.43156H58.3253V16.287Z" fill="#B2B2B2"/>
<path d="M11.0388 21.0479L4.40152 28.3489V21.0479H1.84375V36.4744H4.40152V32.1676L6.14987 30.2365L13.2944 39.4035L17.5249 40.6619L7.89822 28.3164L14.5031 21.0479H11.0388Z" fill="#B2B2B2"/>
<path d="M22.1764 21.0587L15.7874 36.4853H18.4747L20.4496 31.7119L28.6734 36.4853H31.3606L24.9608 21.0587H22.1764ZM21.4425 29.3253L23.5686 24.1831L27.0545 32.5798L21.4425 29.3253Z" fill="#B2B2B2"/>
<path d="M30.017 21.0587V23.6298H34.8088V36.4853H37.3666V23.6298H42.1691V21.0587H30.017Z" fill="#B2B2B2"/>
<path d="M43.68 21.0587V23.6298H48.4718V30.0575V36.4853H51.0296V23.6298H55.8321V21.0587H43.68Z" fill="#B2B2B2"/>
<path d="M68.2541 29.2168C67.3115 28.3561 65.9157 27.8065 64.0667 27.5678C62.5989 27.3798 61.6168 27.2026 61.1204 27.0362C60.6743 26.8844 60.3289 26.6963 60.0843 26.4721C59.7462 26.1611 59.5843 25.814 59.5987 25.4307C59.613 25.0763 59.7785 24.7617 60.0951 24.4869C60.3253 24.2844 60.6455 24.1108 61.0556 23.9661C62.4298 23.4888 63.8184 23.4852 65.2214 23.9553C65.9121 24.1795 66.4733 24.4905 66.905 24.8883C66.9338 24.9099 66.9626 24.9353 66.9914 24.9642L68.8045 23.1416C68.639 22.9753 68.4591 22.8198 68.2649 22.6752C67.0849 21.7711 65.6603 21.2396 63.9911 21.0804C63.0702 21.0009 62.1384 21.0587 61.1959 21.254C60.0663 21.4927 59.149 21.9085 58.4439 22.5016C57.5805 23.2176 57.102 24.1216 57.0085 25.2137C56.8718 26.9133 57.656 28.197 59.3612 29.0649C60.3613 29.5784 61.6168 29.9039 63.1277 30.0413C64.7538 30.1931 65.8726 30.5475 66.4841 31.1044C66.7288 31.3214 66.8511 31.6179 66.8511 31.994C66.8583 32.3628 66.7431 32.6774 66.5057 32.9378C65.779 33.7261 64.5415 34.0407 62.7932 33.8816C61.8003 33.7948 60.9405 33.5236 60.2138 33.068C59.6814 32.7353 59.3432 32.4026 59.1993 32.0699L57.2136 33.784C57.5014 34.1745 57.8575 34.5325 58.282 34.858C59.462 35.762 60.8865 36.29 62.5557 36.4419C63.4335 36.5214 64.3005 36.4853 65.1567 36.3334C66.5597 36.073 67.6533 35.5161 68.4375 34.6627C69.1498 33.8816 69.488 32.9523 69.452 31.8747C69.416 30.797 69.0167 29.9111 68.2541 29.2168Z" fill="#B2B2B2"/>
</svg>
