<svg width="39" height="39" viewBox="0 0 39 39" fill="none" xmlns="http://www.w3.org/2000/svg">
<g clip-path="url(#clip0_859_60)">
<path d="M36.258 3.76152C36.6649 3.70178 37.0504 3.53846 37.3788 3.28668C37.7072 3.0349 37.968 2.7028 38.1369 2.32114C37.8967 2.48805 37.6427 2.63345 37.3779 2.75572C37.0896 2.89062 36.7895 2.99746 36.4814 3.07481C36.9272 2.70672 37.3008 2.2563 37.5826 1.74718C37.8803 1.20823 38.0697 0.614275 38.1395 0C37.8309 0.452339 37.4833 0.92586 37.0934 1.41168C36.7344 1.85924 36.3781 2.26921 36.0332 2.64161C36.3349 2.15241 36.5124 1.59451 36.5499 1.0181C36.5703 0.676064 36.54 0.332841 36.4599 0C36.2835 0.540484 36.0828 1.10283 35.856 1.68158C35.7321 1.99453 35.6057 2.29814 35.4769 2.59241C35.0743 2.84044 34.4482 3.20737 33.6543 3.60095C31.4507 4.68806 30.4273 4.71471 28.9611 5.64672C28.1141 6.18851 27.3484 6.852 26.6877 7.61665C24.3672 6.27435 21.738 5.58435 19.0694 5.61734C16.4002 5.58473 13.7705 6.27545 11.4498 7.6187C10.7891 6.85405 10.0234 6.19056 9.17638 5.64877C7.71219 4.71471 6.68886 4.68806 4.4872 3.60095C3.69068 3.21147 3.06729 2.84044 2.66467 2.59241C2.53628 2.29859 2.40991 1.99498 2.28554 1.68158C2.05672 1.10283 1.85608 0.540484 1.67758 0C1.59755 0.332841 1.56724 0.676064 1.58767 1.0181C1.62478 1.59457 1.80236 2.15255 2.10436 2.64161C1.75878 2.26921 1.40313 1.85924 1.04413 1.41168C0.656271 0.92586 0.308675 0.452339 0 0C0.0703007 0.613101 0.259624 1.20585 0.556958 1.74376C0.838404 2.25411 1.21201 2.70571 1.65812 3.07481C1.34928 2.99873 1.04821 2.89303 0.758939 2.75913C0.493986 2.63658 0.240042 2.49071 0 2.32319C0.169149 2.70447 0.429997 3.03615 0.758412 3.28756C1.08683 3.53897 1.4722 3.70198 1.87889 3.76152C2.12207 7.26951 3.51158 10.5936 5.82591 13.2039C4.50398 15.2764 4.07452 17.0078 3.9336 18.2336C3.83831 19.0611 3.87723 19.6405 3.65847 21.1684C3.50793 22.2568 3.28803 23.3341 3.00019 24.3935C2.7467 25.3383 2.42576 26.263 2.03994 27.1602C1.53117 28.3336 0.908721 29.4525 0.18185 30.5001C0.45124 31.1492 0.841593 31.7391 1.33133 32.237C3.11896 34.0341 4.81668 33.0242 6.22048 34.6579C6.76536 35.292 8.03563 37.2189 8.40335 37.8263C8.53066 38.0627 8.72616 38.2535 8.96342 38.373C9.20068 38.4925 9.46826 38.535 9.72999 38.4946L9.7528 29.5811C9.38977 29.525 8.09803 29.2804 7.17872 28.1243C6.14264 26.8212 6.15405 25.0836 6.66269 23.866C7.77929 21.1923 11.2559 21.1233 11.5297 21.1219C12.9664 21.1255 14.3536 21.6563 15.4371 22.617C16.6812 23.7396 17.0604 25.223 17.3006 26.427C17.671 28.2828 17.6925 30.6381 17.0691 33.2305C17.2791 33.619 17.565 33.9596 17.9091 34.2314C18.2533 34.5032 18.6483 34.7004 19.0701 34.811C19.4919 34.6997 19.8869 34.5017 20.2309 34.2294C20.5749 33.957 20.8606 33.6159 21.0705 33.2271C20.4471 30.6347 20.4665 28.2794 20.8389 26.4236C21.0792 25.2196 21.4583 23.7362 22.7024 22.6135C23.7855 21.6548 25.1714 21.1253 26.6065 21.1219C26.8809 21.1219 30.3576 21.1902 31.4742 23.866C31.9828 25.0836 31.9942 26.8212 30.9581 28.1243C30.0388 29.2804 28.7437 29.525 28.384 29.5811L28.4069 38.4946C28.669 38.5356 28.9372 38.4934 29.175 38.3738C29.4128 38.2543 29.6087 38.0632 29.7362 37.8263C30.1039 37.2189 31.3742 35.292 31.9191 34.6579C33.3229 33.0242 35.0206 34.0341 36.8082 32.237C37.2979 31.7391 37.6883 31.1492 37.9577 30.5001C37.2315 29.4524 36.6097 28.3335 36.1016 27.1602C35.7151 26.263 35.3935 25.3384 35.1393 24.3935C34.8515 23.3341 34.6316 22.2568 34.4811 21.1684C34.2616 19.6405 34.3012 19.0611 34.2059 18.2336C34.065 17.0078 33.6356 15.2764 32.3136 13.2039C34.627 10.5932 36.0155 7.26917 36.258 3.76152Z" fill="#E8E8E8"/>
</g>
<defs>
<clipPath id="clip0_859_60">
<rect width="38.1395" height="38.1395" fill="white"/>
</clipPath>
</defs>
</svg>
