<svg width="166" height="166" viewBox="0 0 166 166" fill="none" xmlns="http://www.w3.org/2000/svg">
<path d="M119.757 3L163 46.2432M163 3L119.757 46.2432M85.1622 7.32432H44.5135C29.9824 7.32432 22.7169 7.32432 17.1667 10.1523C12.2847 12.6398 8.31546 16.609 5.82794 21.4911C3 27.0412 3 34.3067 3 48.8378V121.486C3 136.018 3 143.283 5.82794 148.833C8.31546 153.715 12.2847 157.685 17.1667 160.172C22.7169 163 29.9824 163 44.5135 163H124.081C132.124 163 136.146 163 139.445 162.116C148.399 159.717 155.392 152.723 157.792 143.769C158.676 140.47 158.676 136.448 158.676 128.405M67.8649 54.8919C67.8649 64.4449 60.1206 72.1892 50.5676 72.1892C41.0145 72.1892 33.2703 64.4449 33.2703 54.8919C33.2703 45.3389 41.0145 37.5946 50.5676 37.5946C60.1206 37.5946 67.8649 45.3389 67.8649 54.8919ZM106.698 84.4542L33.5397 150.961C29.4248 154.702 27.3673 156.573 27.1853 158.193C27.0276 159.597 27.5661 160.99 28.6275 161.923C29.8521 163 32.6327 163 38.1938 163H119.376C131.823 163 138.046 163 142.934 160.909C149.071 158.284 153.96 153.395 156.585 147.259C158.676 142.371 158.676 136.147 158.676 123.7C158.676 119.512 158.676 117.418 158.218 115.468C157.643 113.018 156.539 110.722 154.985 108.742C153.748 107.166 152.113 105.858 148.843 103.242L124.65 83.8879C121.377 81.2695 119.741 79.9603 117.939 79.4983C116.35 79.091 114.679 79.1437 113.119 79.6503C111.35 80.225 109.799 81.6348 106.698 84.4542Z" stroke="#D3CDC6" stroke-opacity="0.25" stroke-width="6" stroke-linecap="round" stroke-linejoin="round"/>
</svg>
