<svg width="194" height="254" viewBox="0 0 194 254" fill="none" xmlns="http://www.w3.org/2000/svg">
<path d="M91 10.3253V244.542M189 127.434C189 187.941 123.414 231.949 99.5504 245.958C96.8383 247.551 95.4823 248.347 93.5686 248.76C92.0834 249.08 89.9166 249.08 88.4314 248.76C86.5177 248.347 85.1617 247.551 82.4496 245.958C58.586 231.949 -7 187.941 -7 127.434V68.4802C-7 58.6245 -7 53.6966 -5.39819 49.4606C-3.98314 45.7185 -1.68371 42.3795 1.30131 39.7323C4.68032 36.7356 9.26553 35.0053 18.436 31.5448L84.118 6.75877C86.6647 5.79773 87.9381 5.31721 89.248 5.12672C90.41 4.95776 91.59 4.95776 92.7519 5.12672C94.0619 5.31721 95.3353 5.79773 97.882 6.75877L163.564 31.5448C172.734 35.0053 177.32 36.7356 180.699 39.7323C183.684 42.3795 185.983 45.7185 187.398 49.4606C189 53.6966 189 58.6244 189 68.4802V127.434Z" stroke="#344C49" stroke-width="10" stroke-linecap="round" stroke-linejoin="round"/>
</svg>
