<svg width="120" height="120" viewBox="0 0 120 120" fill="none" xmlns="http://www.w3.org/2000/svg">
<mask id="mask0_1159_2692" style="mask-type:alpha" maskUnits="userSpaceOnUse" x="0" y="0" width="120" height="120">
<circle cx="60" cy="60" r="60" fill="#D9D9D9"/>
</mask>
<g mask="url(#mask0_1159_2692)">
<path d="M20.7508 103.681C24.3231 95.2646 32.6636 89.3617 42.3827 89.3617H77.6168C87.336 89.3617 95.6764 95.2646 99.2487 103.681M83.4891 45.3192C83.4891 58.292 72.9726 68.8085 59.9998 68.8085C47.0269 68.8085 36.5104 58.292 36.5104 45.3192C36.5104 32.3463 47.0269 21.8298 59.9998 21.8298C72.9726 21.8298 83.4891 32.3463 83.4891 45.3192ZM118.723 60C118.723 92.4321 92.4318 118.723 59.9998 118.723C27.5677 118.723 1.27637 92.4321 1.27637 60C1.27637 27.568 27.5677 1.27661 59.9998 1.27661C92.4318 1.27661 118.723 27.568 118.723 60Z" stroke="#71CFC3" stroke-width="4" stroke-linecap="round" stroke-linejoin="round"/>
</g>
</svg>
